{"title":"20-20 - 19-8-2016 - Mystery In Apartment 410","uid":15959453,"size":968070242,"categoryP":"video","categoryS":"tv_shows","magnet":"?xt=urn:btih:57036ff7f8d69adae956cd9019e6fd5116a3ebee&amp;dn=20-20+-+19-8-2016+-+Mystery+In+Apartment+410&amp;tr=udp%3A%2F%2Ftracker.leechers-paradise.org%3A6969&amp;tr=udp%3A%2F%2Fzer0day.ch%3A1337&amp;tr=udp%3A%2F%2Fopen.demonii.com%3A1337&amp;tr=udp%3A%2F%2Ftracker.coppersurfer.tk%3A6969&amp;tr=udp%3A%2F%2Fexodus.desync.com%3A6969","seeders":4,"leechers":2,"uploader":"Bullrout","files":1,"time":1475646949,"description":"20-20 - 19-8-2016 - Mystery In Apartment 410\r\n\r\nIt is a Southern California mystery ripped straight from a Hollywood script, yet the actors in this drama are real and so are the twists and turns that unfold in solving a double murder. The plot involves a Community theater actor who tries to frame a war veteran for the murder of a 23-year-old dancer and college student.\r\n\r\nComplete name                            : 20-20 - 20-8-2016 - Mystery In Apartment 410.mkv\r\nFormat                                   : Matroska\r\nFormat version                           : Version 4 / Version 2\r\nFile size                                : 923 MiB\r\nDuration                                 : 38 min 46 s\r\nOverall bit rate mode                    : Variable\r\nOverall bit rate                         : 3 329 kb/s\r\nEncoded date                             : UTC 2016-09-26 04:23:32\r\nWriting application                      : mkvmerge v9.4.2 ('So High') 64bit\r\nWriting library                          : libebml v1.3.4 + libmatroska v1.4.5\r\n\r\nVideo\r\nID                                       : 2\r\nFormat                                   : AVC\r\nFormat/Info                              : Advanced Video Codec\r\nFormat profile                           :   \r\nFormat settings, CABAC                   : Yes\r\nFormat settings, ReFrames                : 3 frames\r\nCodec ID                                 : V_MPEG4/ISO/AVC\r\nDuration                                 : 38 min 46 s\r\nBit rate mode                            : Variable\r\nBit rate                                 : 2 943 kb/s\r\nMaximum bit rate                         : 3 000 kb/s\r\nWidth                                    : 1 280 pixels\r\nHeight                                   : 720 pixels\r\nDisplay aspect ratio                     : 16:9\r\nFrame rate mode                          : Constant\r\nFrame rate                               : 25.000 FPS\r\nStandard                                 : PAL\r\nColor space                              : YUV\r\nChroma subsampling                       : 4:2:0\r\nBit depth                                : 8 bits\r\nScan type                                : Progressive\r\nBits/(Pixel*Frame)                       : 0.128\r\nStream size                              : 816 MiB (88%)\r\nWriting library                          : x264 core 112\r\nDefault                                  : Yes\r\nForced                                   : No\r\nColor range                              : Limited\r\nColor primaries                          : BT.709\r\nTransfer characteristics                 : BT.709\r\nMatrix coefficients                      : BT.709\r\n\r\nAudio\r\nID                                       : 1\r\nFormat                                   : AC-3\r\nFormat/Info                              : Audio Coding 3\r\nMode extension                           : CM (complete main)\r\nFormat settings, Endianness              : Big\r\nCodec ID                                 : A_AC3\r\nDuration                                 : 38 min 46 s\r\nBit rate mode                            : Constant\r\nBit rate                                 : 384 kb/s\r\nChannel(s)                               : 6 channels\r\nChannel positions                        : Front: L C R, Side: L R, LFE\r\nSampling rate                            : 48.0 kHz\r\nFrame rate                               : 31.250 FPS (1536 spf)\r\nCompression mode                         : Lossy\r\nStream size                              : 107 MiB (12%)\r\nDefault                                  : Yes\r\nForced                                   : No","torrent":{"xt":"urn:btih:57036ff7f8d69adae956cd9019e6fd5116a3ebee","amp;dn":"20-20+-+19-8-2016+-+Mystery+In+Apartment+410","amp;tr":["udp%3A%2F%2Ftracker.leechers-paradise.org%3A6969","udp%3A%2F%2Fzer0day.ch%3A1337","udp%3A%2F%2Fopen.demonii.com%3A1337","udp%3A%2F%2Ftracker.coppersurfer.tk%3A6969","udp%3A%2F%2Fexodus.desync.com%3A6969"],"infoHash":"57036ff7f8d69adae956cd9019e6fd5116a3ebee","infoHashBuffer":{"type":"Buffer","data":[87,3,111,247,248,214,154,218,233,86,205,144,25,230,253,81,22,163,235,238]},"announce":[],"urlList":[]}}